<?xml version="1.0" standalone="no"?>
<!DOCTYPE svg PUBLIC "-//W3C//DTD SVG 20010904//EN"
 "http://www.w3.org/TR/2001/REC-SVG-20010904/DTD/svg10.dtd">
<svg version="1.0" xmlns="http://www.w3.org/2000/svg"
 width="1515.000000pt" height="1515.000000pt" viewBox="0 0 1515.000000 1515.000000"
 preserveAspectRatio="xMidYMid meet">
<metadata>
Created by potrace 1.11, written by Peter Selinger 2001-2013
</metadata>
<g transform="translate(0.000000,1515.000000) scale(0.100000,-0.100000)"
fill="#000000" stroke="none">
<path d="M7210 14873 c-44 -3 -266 -22 -340 -29 -30 -3 -131 -17 -223 -30
-191 -27 -192 -27 -342 -54 -60 -11 -123 -22 -140 -25 -239 -42 -638 -139
-885 -214 -819 -249 -1617 -666 -2280 -1191 -168 -134 -343 -284 -469 -405
-83 -80 -320 -318 -349 -353 -11 -12 -47 -53 -81 -91 -639 -714 -1148 -1610
-1431 -2521 -108 -347 -209 -793 -245 -1080 -4 -30 -9 -63 -10 -72 -2 -9 -7
-48 -10 -85 -4 -37 -8 -75 -10 -83 -2 -8 -7 -60 -11 -115 -3 -55 -8 -109 -10
-120 -2 -11 -7 -137 -10 -280 -7 -282 -2 -324 41 -365 l24 -23 -31 -16 c-41
-21 -69 -59 -78 -109 -15 -83 -2 -581 21 -807 108 -1058 426 -2004 995 -2956
35 -59 64 -110 64 -113 0 -3 -21 8 -47 24 -53 34 -98 38 -129 12 -75 -63 -49
-144 127 -390 89 -123 300 -394 356 -458 16 -17 48 -55 73 -84 154 -181 481
-509 674 -675 32 -27 69 -60 82 -72 57 -52 369 -297 484 -379 773 -557 1633
-950 2565 -1174 158 -38 477 -103 565 -115 25 -3 72 -10 105 -15 59 -9 117
-17 185 -25 19 -2 85 -9 145 -15 61 -6 126 -13 145 -15 235 -25 919 -26 1130
-1 19 3 69 7 110 11 700 59 1530 273 2220 572 171 74 186 81 393 184 627 314
1153 664 1642 1093 221 195 564 541 710 717 39 48 130 154 135 159 4 3 51 64
107 135 585 757 1000 1574 1263 2485 82 285 168 678 200 916 6 44 12 89 14
100 2 10 7 48 11 84 4 36 9 73 11 83 2 10 6 60 10 110 3 51 8 95 10 98 8 14
19 347 19 589 0 239 -9 506 -20 585 -2 17 -6 62 -10 100 -25 310 -105 772
-191 1105 -282 1096 -777 2053 -1508 2915 -114 135 -232 262 -406 436 -967
968 -2144 1606 -3490 1893 -238 51 -541 99 -755 121 -33 4 -74 8 -91 10 -95
11 -925 25 -1034 18z m600 -294 c99 -8 174 -15 275 -24 53 -5 257 -33 370 -50
111 -18 446 -88 565 -120 74 -20 142 -37 150 -39 136 -33 460 -142 670 -226
140 -56 169 -68 330 -141 208 -94 690 -354 690 -372 0 -5 -39 13 -86 38 -124
68 -463 236 -574 285 -410 181 -933 348 -1360 434 -144 29 -379 67 -495 81
-108 12 -132 15 -190 20 -33 3 -78 8 -100 10 -266 28 -890 25 -1190 -5 -49 -5
-119 -12 -155 -16 -36 -3 -72 -7 -80 -9 -8 -1 -42 -6 -75 -9 -78 -9 -331 -51
-465 -77 -583 -115 -1202 -331 -1747 -609 -199 -101 -261 -126 -177 -72 163
106 548 309 769 407 667 295 1273 451 1905 491 58 4 106 8 108 9 8 7 776 2
862 -6z m-110 -453 c14 -2 68 -7 120 -10 85 -6 191 -16 320 -32 868 -104 1714
-389 2465 -828 255 -149 608 -398 845 -594 181 -149 260 -222 451 -412 138
-138 205 -208 304 -321 27 -30 151 -179 182 -219 6 -8 32 -40 56 -70 229 -287
506 -727 690 -1095 107 -215 136 -278 224 -495 248 -613 401 -1274 440 -1910
15 -235 6 -1009 -12 -1040 -1 -3 -6 -41 -9 -85 -10 -117 -15 -166 -37 -310
-24 -158 -29 -186 -34 -205 -2 -8 -6 -31 -9 -50 -18 -120 -95 -442 -147 -615
-169 -563 -413 -1103 -707 -1570 -405 -641 -948 -1229 -1567 -1694 -325 -245
-632 -435 -975 -605 -63 -32 -123 -62 -133 -67 -43 -23 -302 -135 -407 -176
-552 -215 -1098 -352 -1675 -419 -33 -3 -69 -8 -80 -10 -91 -17 -736 -24
-1000 -11 -159 8 -236 16 -505 52 -1028 139 -2036 537 -2910 1149 -56 40 -279
207 -315 237 -11 9 -51 43 -90 75 -194 161 -383 340 -624 593 -35 36 -259 297
-305 355 -555 692 -998 1558 -1240 2424 -41 146 -52 189 -91 355 -34 146 -87
438 -99 542 -8 78 -28 169 -41 196 -21 39 -77 63 -118 50 -35 -12 -51 -33 -78
-101 -17 -43 -18 -43 -19 -15 -1 17 -3 38 -5 48 -2 10 -6 76 -9 145 -11 217
-20 260 -65 312 l-22 24 32 16 c71 34 84 82 94 345 4 94 8 186 10 205 2 19 6
77 10 128 3 51 8 100 10 110 1 9 6 51 10 92 6 67 44 325 60 405 3 17 10 55 16
85 136 722 438 1506 837 2169 155 259 524 783 539 767 3 -3 -37 -70 -89 -148
-176 -266 -307 -504 -346 -628 -12 -36 -32 -89 -45 -119 -38 -81 -25 -160 30
-178 75 -26 128 4 194 108 246 391 491 721 769 1034 85 97 310 311 453 433
983 836 2131 1359 3347 1526 102 14 217 28 255 32 39 3 84 7 100 9 17 2 98 7
180 10 83 4 152 9 154 11 6 6 578 -4 611 -10z m5737 -3606 c168 -349 285 -650
382 -980 28 -96 55 -188 61 -205 35 -113 116 -510 145 -705 23 -160 23 -158
35 -270 6 -58 13 -121 15 -141 21 -184 28 -853 12 -1094 -27 -402 -99 -857
-193 -1224 -101 -396 -307 -906 -544 -1351 -678 -1270 -1739 -2292 -3038
-2926 -575 -280 -1180 -475 -1812 -583 -96 -16 -197 -33 -225 -36 -27 -3 -79
-10 -115 -15 -36 -5 -105 -12 -155 -15 -49 -4 -98 -9 -108 -11 -130 -24 -873
-24 -1097 1 -19 2 -66 6 -105 10 -1030 95 -2077 450 -2953 1001 -244 154 -529
357 -697 498 -33 28 -82 69 -109 91 -27 22 -58 49 -71 60 -433 387 -707 700
-990 1129 -121 185 -169 265 -287 481 -136 249 -131 263 12 30 158 -258 341
-511 558 -770 194 -232 503 -546 722 -735 41 -36 77 -67 80 -70 24 -26 252
-207 360 -287 445 -330 923 -609 1385 -808 61 -26 124 -53 140 -60 157 -69
598 -217 815 -274 225 -59 594 -132 780 -155 171 -20 229 -28 255 -31 104 -15
287 -20 715 -19 466 0 610 7 825 39 16 3 93 14 170 25 870 126 1675 412 2405
855 1328 805 2328 2006 2835 3405 146 402 277 928 330 1332 21 153 26 202 31
263 3 39 7 76 9 83 26 79 26 1080 0 1232 -2 14 -6 52 -9 85 -8 93 -38 309 -56
415 -5 30 -12 71 -15 90 -14 86 -60 298 -97 445 -105 420 -240 803 -417 1183
-45 95 -81 176 -81 180 1 14 52 -75 97 -168z"/>
<path d="M3560 7805 l0 -2318 748 7 c411 3 767 8 792 11 290 35 470 74 691
148 733 245 1202 784 1353 1552 15 78 18 97 35 240 15 131 19 426 8 605 -18
281 -98 610 -205 842 -285 616 -872 1033 -1642 1167 -270 47 -361 52 -1092 58
l-688 6 0 -2318z m1075 1771 c361 -8 483 -22 718 -81 445 -113 771 -360 956
-725 107 -212 172 -447 190 -689 9 -116 6 -595 -4 -651 -68 -389 -136 -581
-276 -779 -71 -101 -227 -256 -321 -319 -227 -153 -548 -260 -858 -287 -41 -4
-86 -9 -100 -12 -14 -2 -181 -7 -372 -10 l-348 -6 0 1784 0 1784 78 -2 c42 -1
194 -4 337 -7z"/>
<path d="M8140 7804 l0 -2317 798 6 c719 5 860 9 989 32 626 108 1045 395
1207 827 84 222 94 541 25 773 -48 162 -124 289 -254 424 -139 146 -297 248
-497 322 -45 16 -87 33 -95 38 -11 6 12 28 91 85 245 179 412 401 477 636 21
77 24 104 23 300 0 246 -9 297 -87 471 -169 375 -504 599 -1022 683 -154 25
-175 26 -924 32 l-731 5 0 -2317z m1415 1795 c121 -14 201 -36 305 -86 170
-82 289 -227 337 -413 12 -48 16 -108 16 -230 0 -196 -11 -252 -80 -389 -54
-109 -153 -218 -244 -269 -164 -93 -284 -111 -746 -112 l-333 0 0 755 0 756
333 -2 c182 -1 368 -6 412 -10z m335 -2037 c272 -65 449 -187 539 -373 64
-133 74 -188 75 -389 0 -159 -2 -181 -24 -243 -99 -288 -377 -487 -755 -542
-22 -3 -224 -8 -450 -11 -225 -2 -422 -6 -437 -8 l-28 -3 0 800 0 799 498 -5
c455 -4 504 -6 582 -25z"/>
</g>
</svg>
